<svg width="1200" height="760" viewBox="0 0 1200 760" fill="none" xmlns="http://www.w3.org/2000/svg">
<rect width="1200" height="760" rx="32" fill="#F5F7FB"/>
<rect x="32" y="32" width="1136" height="696" rx="24" fill="white" stroke="#D9E1EC"/>
<rect x="72" y="72" width="220" height="32" rx="10" fill="#E9F2FF"/>
<rect x="72" y="124" width="280" height="18" rx="9" fill="#CBD8EE"/>
<rect x="72" y="176" width="250" height="120" rx="18" fill="#E8FFF7"/>
<rect x="342" y="176" width="250" height="120" rx="18" fill="#FFF5E8"/>
<rect x="612" y="176" width="250" height="120" rx="18" fill="#F3EDFF"/>
<rect x="72" y="328" width="440" height="340" rx="20" fill="#F8FAFC" stroke="#E2E8F0"/>
<rect x="96" y="356" width="170" height="20" rx="10" fill="#C7D2FE"/>
<rect x="96" y="396" width="392" height="26" rx="13" fill="#EEF2FF"/>
<rect x="96" y="438" width="392" height="26" rx="13" fill="#EEF2FF"/>
<rect x="96" y="480" width="260" height="26" rx="13" fill="#E0F2FE"/>
<rect x="544" y="328" width="584" height="340" rx="20" fill="#0F172A"/>
<rect x="576" y="362" width="220" height="20" rx="10" fill="#334155"/>
<rect x="576" y="410" width="520" height="34" rx="17" fill="#1E293B"/>
<rect x="576" y="462" width="520" height="34" rx="17" fill="#1E293B"/>
<rect x="576" y="514" width="360" height="34" rx="17" fill="#1D4ED8"/>
<text x="84" y="95" fill="#1E3A8A" font-size="18" font-family="Arial">Support Dashboard</text>
<text x="98" y="235" fill="#047857" font-size="36" font-family="Arial" font-weight="700">24h</text>
<text x="368" y="235" fill="#C2410C" font-size="36" font-family="Arial" font-weight="700">13</text>
<text x="638" y="235" fill="#6D28D9" font-size="36" font-family="Arial" font-weight="700">98%</text>
</svg>