<svg width="1200" height="760" viewBox="0 0 1200 760" fill="none" xmlns="http://www.w3.org/2000/svg">
<rect width="1200" height="760" rx="32" fill="#F8FAFC"/>
<rect x="28" y="28" width="1144" height="704" rx="28" fill="white" stroke="#D8E2F0"/>
<rect x="72" y="76" width="180" height="32" rx="10" fill="#DBEAFE"/>
<rect x="72" y="126" width="310" height="18" rx="9" fill="#CBD5E1"/>
<rect x="72" y="176" width="360" height="488" rx="20" fill="#111827"/>
<rect x="460" y="176" width="668" height="220" rx="20" fill="#F8FAFC" stroke="#E2E8F0"/>
<rect x="492" y="208" width="260" height="20" rx="10" fill="#C7D2FE"/>
<rect x="492" y="248" width="604" height="28" rx="14" fill="#E2E8F0"/>
<rect x="492" y="292" width="420" height="28" rx="14" fill="#E2E8F0"/>
<rect x="492" y="336" width="180" height="28" rx="14" fill="#BFDBFE"/>
<rect x="460" y="428" width="206" height="236" rx="20" fill="#E0F2FE"/>
<rect x="691" y="428" width="206" height="236" rx="20" fill="#ECFCCB"/>
<rect x="922" y="428" width="206" height="236" rx="20" fill="#FCE7F3"/>
<text x="96" y="218" fill="#FFFFFF" font-size="22" font-family="Arial">Rule Builder</text>
<text x="96" y="262" fill="#94A3B8" font-size="16" font-family="Arial">segments</text>
<text x="490" y="108" fill="#1E3A8A" font-size="18" font-family="Arial">Campaign Console</text>
</svg>