<svg width="1200" height="760" viewBox="0 0 1200 760" fill="none" xmlns="http://www.w3.org/2000/svg">
<rect width="1200" height="760" rx="32" fill="#F4F7FB"/>
<rect x="32" y="32" width="1136" height="696" rx="24" fill="white" stroke="#D8E2F0"/>
<rect x="72" y="72" width="210" height="32" rx="10" fill="#E0E7FF"/>
<rect x="72" y="124" width="260" height="18" rx="9" fill="#CBD5E1"/>
<rect x="72" y="180" width="300" height="484" rx="20" fill="#F8FAFC" stroke="#E2E8F0"/>
<rect x="104" y="214" width="236" height="40" rx="12" fill="#EEF2FF"/>
<rect x="104" y="274" width="236" height="40" rx="12" fill="#EEF2FF"/>
<rect x="104" y="334" width="236" height="40" rx="12" fill="#DBEAFE"/>
<rect x="404" y="180" width="724" height="214" rx="20" fill="#F8FAFC" stroke="#E2E8F0"/>
<rect x="436" y="214" width="220" height="20" rx="10" fill="#CBD5E1"/>
<rect x="436" y="256" width="660" height="28" rx="14" fill="#E2E8F0"/>
<rect x="436" y="300" width="660" height="28" rx="14" fill="#E2E8F0"/>
<rect x="436" y="344" width="240" height="28" rx="14" fill="#BFDBFE"/>
<rect x="404" y="426" width="348" height="238" rx="20" fill="#ECFEFF"/>
<rect x="780" y="426" width="348" height="238" rx="20" fill="#FEF3C7"/>
<text x="84" y="95" fill="#4338CA" font-size="18" font-family="Arial">Integration Setup</text>
<text x="108" y="238" fill="#1E3A8A" font-size="18" font-family="Arial">Permissions</text>
</svg>